<?xml version="1.0" encoding="UTF-8" standalone="no"?>
<svg width="484px" height="54px" viewBox="0 0 484 54" version="1.1" xmlns="http://www.w3.org/2000/svg" xmlns:xlink="http://www.w3.org/1999/xlink" xmlns:sketch="http://www.bohemiancoding.com/sketch/ns">
    <!-- Generator: Sketch 3.3.1 (12002) - http://www.bohemiancoding.com/sketch -->
    <title>recomn-logo-white</title>
    <desc>Created with Sketch.</desc>
    <defs></defs>
    <g id="Page-1" stroke="none" stroke-width="1" fill="none" fill-rule="evenodd" sketch:type="MSPage">
        <g id="recomn-logo-white" sketch:type="MSArtboardGroup" fill="#FFFFFF">
            <g id="Group" sketch:type="MSLayerGroup">
                <g id="Shape" sketch:type="MSShapeGroup">
                    <path d="M24.3,9.7 C22.3,9 20.4,8.7 18.6,8.7 C15.7,8.7 13.5,9.5 11.8,11 C10.1,12.6 9.1,14.5 8.7,17 L8.7,52 L0.7,52 L0.7,2 L6.3,2 L7.8,8.1 L8.2,8.1 C9.5,5.8 11,4.1 12.7,2.9 C14.5,1.7 16.7,1.1 19.5,1.1 C21.4,1.1 23.6,1.4 26,2.1 L24.3,9.7 L24.3,9.7 Z"></path>
                    <path d="M67.2,48 C65.2,49.6 62.7,50.9 59.7,51.8 C56.7,52.7 53.5,53.2 50,53.2 C46.2,53.2 42.9,52.6 40.1,51.3 C37.3,50.1 35,48.3 33.2,46 C31.4,43.7 30.1,41 29.2,37.8 C28.3,34.6 27.9,31 27.9,27 C27.9,18.5 29.8,12 33.6,7.5 C37.4,3 42.8,0.8 49.9,0.8 C52.2,0.8 54.4,1 56.7,1.6 C59,2.1 61,3.1 62.8,4.5 C64.6,5.9 66.1,7.9 67.2,10.4 C68.3,13 68.9,16.4 68.9,20.6 C68.9,22.8 68.7,25.2 68.3,27.9 L36.2,27.9 C36.2,30.8 36.5,33.4 37.1,35.7 C37.7,38 38.6,39.9 39.9,41.5 C41.2,43.1 42.8,44.3 44.9,45.1 C46.9,45.9 49.4,46.3 52.3,46.3 C54.6,46.3 56.8,45.9 59.1,45.1 C61.4,44.3 63.1,43.4 64.2,42.3 L67.2,48 L67.2,48 Z M50,7.8 C46.1,7.8 42.9,8.8 40.5,10.9 C38.1,13 36.7,16.5 36.3,21.5 L61.1,21.5 C61.1,16.4 60.1,12.9 58.2,10.8 C56.2,8.8 53.5,7.8 50,7.8 L50,7.8 Z"></path>
                    <path d="M111.6,48.7 C109.6,50.2 107.2,51.3 104.5,52 C101.8,52.8 98.9,53.2 95.9,53.2 C92,53.2 88.8,52.6 86.1,51.3 C83.4,50.1 81.3,48.3 79.6,46 C77.9,43.7 76.7,40.9 75.9,37.7 C75.1,34.5 74.8,30.9 74.8,26.9 C74.8,18.4 76.7,11.9 80.4,7.4 C84.1,2.9 89.5,0.6 96.5,0.6 C99.7,0.6 102.4,0.8 104.6,1.4 C106.8,1.9 108.8,2.6 110.6,3.6 L108.3,10.5 C106.8,9.6 105.1,9 103.2,8.5 C101.3,8 99.3,7.8 97.2,7.8 C87.7,7.8 83,14.2 83,27 C83,29.5 83.2,32 83.8,34.2 C84.4,36.4 85.1,38.5 86.3,40.3 C87.5,42.1 89,43.5 90.9,44.5 C92.8,45.6 95.1,46.1 98,46.1 C100.4,46.1 102.5,45.7 104.4,45 C106.3,44.3 107.9,43.4 109.1,42.5 L111.6,48.7 L111.6,48.7 Z"></path>
                </g>
                <path d="M210,52 L210,23.7 C210,21 209.9,18.7 209.6,16.7 C209.4,14.7 208.9,13.1 208.3,11.7 C207.6,10.4 206.7,9.4 205.5,8.7 C204.3,8 202.6,7.7 200.6,7.7 C197.5,7.7 195,8.6 193,10.5 C191,12.4 189.5,14.7 188.8,17.5 L188.8,52 L180.8,52 L180.8,2 L186.4,2 L187.9,8.1 L188.3,8.1 C190.1,6 192.2,4.2 194.5,2.9 C196.9,1.5 199.9,0.9 203.7,0.9 C206.9,0.9 209.5,1.5 211.5,2.8 C213.5,4 215.1,6.2 216.3,9.2 C217.8,6.6 220,4.6 222.6,3.1 C225.3,1.6 228.4,0.9 231.8,0.9 C234.6,0.9 237,1.2 238.9,1.9 C240.8,2.5 242.4,3.7 243.7,5.2 C245,6.8 245.9,9 246.5,11.7 C247.1,14.4 247.3,17.9 247.3,22.1 L247.3,52.1 L239.3,52.1 L239.3,21.9 C239.3,19.5 239.2,17.4 239,15.7 C238.8,13.9 238.3,12.5 237.6,11.3 C236.9,10.1 235.9,9.3 234.7,8.7 C233.5,8.1 231.9,7.8 229.9,7.8 C226.6,7.8 224,8.7 222.1,10.6 C220.2,12.5 218.9,15.1 218.1,18.6 L218.1,52 L210,52 L210,52 Z" id="Shape" sketch:type="MSShapeGroup"></path>
                <path d="M270,25.4 L266,17.4 L265.6,17.4 L266.8,25.4 L266.8,52 L257.3,52 L257.3,0.5 L264.6,0.5 L284,27.8 L287.9,35.6 L288.3,35.6 L287.1,27.8 L287.1,0.9 L296.6,0.9 L296.6,52.4 L289.3,52.4 L270,25.4 L270,25.4 Z" id="Shape" sketch:type="MSShapeGroup"></path>
                <g transform="translate(305.000000, 0.000000)" id="Shape" sketch:type="MSShapeGroup">
                    <path d="M0.9,47.4 C0.9,45.6 1.4,44.2 2.4,43.2 C3.4,42.2 4.8,41.6 6.6,41.6 C8.4,41.6 9.8,42.1 10.9,43.2 C12,44.2 12.5,45.6 12.5,47.4 C12.5,49.1 12,50.5 10.9,51.6 C9.8,52.7 8.4,53.2 6.6,53.2 C4.9,53.2 3.5,52.7 2.4,51.6 C1.4,50.5 0.9,49.1 0.9,47.4 L0.9,47.4 Z"></path>
                    <path d="M55.2,48.7 C53.2,50.2 50.8,51.3 48.1,52 C45.4,52.8 42.5,53.2 39.5,53.2 C35.6,53.2 32.4,52.6 29.7,51.3 C27,50.1 24.9,48.3 23.1,46 C21.4,43.7 20.2,40.9 19.4,37.7 C18.6,34.5 18.2,30.9 18.2,26.9 C18.2,18.4 20.1,11.9 23.8,7.4 C27.5,2.9 32.9,0.6 39.9,0.6 C43.1,0.6 45.8,0.8 48.1,1.4 C50.3,1.9 52.3,2.6 54.2,3.6 L51.9,10.5 C50.4,9.6 48.7,9 46.8,8.5 C44.9,8 42.9,7.8 40.8,7.8 C31.3,7.8 26.6,14.2 26.6,27 C26.6,29.5 26.8,32 27.4,34.2 C28,36.4 28.7,38.5 29.9,40.3 C31.1,42.1 32.6,43.5 34.5,44.5 C36.4,45.6 38.7,46.1 41.5,46.1 C43.9,46.1 46.1,45.7 48,45 C49.9,44.3 51.4,43.4 52.7,42.5 L55.2,48.7 L55.2,48.7 Z"></path>
                    <path d="M59.3,27 C59.3,18.5 61.2,12 65,7.5 C68.8,3 74.2,0.7 81.2,0.7 C84.9,0.7 88.2,1.3 91,2.6 C93.8,3.8 96.1,5.6 97.8,7.9 C99.6,10.2 100.9,13 101.8,16.2 C102.7,19.4 103.1,23 103.1,27 C103.1,35.5 101.2,42 97.4,46.5 C93.6,51 88.2,53.3 81.2,53.3 C77.5,53.3 74.2,52.7 71.4,51.4 C68.6,50.2 66.4,48.4 64.6,46.1 C62.8,43.8 61.5,41 60.6,37.8 C59.8,34.5 59.3,30.9 59.3,27 L59.3,27 Z M67.6,27 C67.6,29.5 67.8,32 68.4,34.3 C68.9,36.6 69.7,38.7 70.7,40.4 C71.8,42.1 73.2,43.5 74.9,44.6 C76.6,45.7 78.7,46.2 81.2,46.2 C90.3,46.3 94.8,39.9 94.8,27 C94.8,24.4 94.6,21.9 94,19.6 C93.5,17.3 92.7,15.2 91.7,13.5 C90.6,11.8 89.2,10.4 87.5,9.3 C85.8,8.3 83.7,7.8 81.2,7.8 C72.2,7.7 67.6,14.1 67.6,27 L67.6,27 Z"></path>
                    <path d="M141,52 L141,23.7 C141,21 140.9,18.7 140.6,16.7 C140.4,14.7 139.9,13.1 139.3,11.7 C138.6,10.4 137.7,9.4 136.5,8.7 C135.3,8 133.7,7.7 131.7,7.7 C128.6,7.7 126.1,8.6 124,10.5 C122,12.4 120.6,14.7 119.8,17.5 L119.8,52 L111.8,52 L111.8,2 L117.4,2 L118.9,8.1 L119.3,8.1 C121.1,6 123.2,4.2 125.5,2.9 C127.9,1.5 130.9,0.9 134.7,0.9 C137.9,0.9 140.5,1.5 142.5,2.8 C144.5,4 146.1,6.2 147.3,9.2 C148.8,6.6 151,4.6 153.6,3.1 C156.3,1.6 159.4,0.9 162.8,0.9 C165.6,0.9 168,1.2 169.9,1.9 C171.8,2.5 173.4,3.7 174.7,5.2 C176,6.8 176.9,9 177.5,11.7 C178.1,14.4 178.3,17.9 178.3,22.1 L178.3,52.1 L170.3,52.1 L170.3,21.9 C170.3,19.5 170.2,17.4 170,15.7 C169.8,13.9 169.3,12.5 168.6,11.3 C167.9,10.1 166.9,9.3 165.7,8.7 C164.5,8.1 162.9,7.8 160.9,7.8 C157.6,7.8 155,8.7 153.1,10.6 C151.2,12.5 149.9,15.1 149.1,18.6 L149.1,52 L141,52 L141,52 Z"></path>
                </g>
                <path d="M141.9,42 L124.9,25 L132,18 L142,28 L164.8,5.2 C161.1,2 156.2,0 151,0 L137,0 C125.4,0 116,9.4 116,21 L116,31 C116,42.6 125.4,52 137,52 L146,52 C151.5,52 156.6,50.3 160.7,47.4 L171.8,51.8 L167.4,40.7 C170.3,36.5 172,31.4 172,26 L172,21 C172,18.3 171.5,15.8 170.5,13.4 L141.9,42 L141.9,42 Z" id="Shape" sketch:type="MSShapeGroup"></path>
            </g>
        </g>
    </g>
</svg>